<svg width="20" height="20" viewBox="0 0 20 20" fill="none"
    xmlns="http://www.w3.org/2000/svg">
    <path d="M11.0833 14.3958C10.9166 14.2292 10.8366 14.0278 10.8433 13.7917C10.85 13.5556 10.9369 13.3542 11.1041 13.1875L13.4583 10.8333H4.16665C3.93054 10.8333 3.73248 10.7533 3.57248 10.5933C3.41248 10.4333 3.33276 10.2356 3.33332 10C3.33332 9.76389 3.41332 9.56583 3.57332 9.40583C3.73332 9.24583 3.93109 9.16611 4.16665 9.16667H13.4583L11.0833 6.79167C10.9166 6.625 10.8333 6.42695 10.8333 6.1975C10.8333 5.96806 10.9166 5.77028 11.0833 5.60417C11.25 5.4375 11.448 5.35417 11.6775 5.35417C11.9069 5.35417 12.1047 5.4375 12.2708 5.60417L16.0833 9.41667C16.1666 9.5 16.2258 9.59028 16.2608 9.6875C16.2958 9.78472 16.313 9.88889 16.3125 10C16.3125 10.1111 16.295 10.2153 16.26 10.3125C16.225 10.4097 16.1661 10.5 16.0833 10.5833L12.25 14.4167C12.0972 14.5694 11.9064 14.6458 11.6775 14.6458C11.4486 14.6458 11.2505 14.5625 11.0833 14.3958Z" fill="black"/>
</svg>
