<svg width="18" height="18" viewBox="0 0 18 18" fill="none"
    xmlns="http://www.w3.org/2000/svg">
    <path d="M2.25 16H5.625V10H12.375V16H15.75V7L9 2.5L2.25 7V16ZM2.25 18C1.63125 18 1.10138 17.804 0.660377 17.412C0.219377 17.02 -0.00074809 16.5493 1.91002e-06 16V7C1.91002e-06 6.68333 0.0798767 6.38333 0.239627 6.1C0.399377 5.81667 0.619502 5.58333 0.900002 5.4L7.65 0.9C7.85625 0.766667 8.07187 0.666667 8.29687 0.6C8.52187 0.533333 8.75625 0.5 9 0.5C9.24375 0.5 9.47812 0.533333 9.70312 0.6C9.92812 0.666667 10.1437 0.766667 10.35 0.9L17.1 5.4C17.3812 5.58333 17.6017 5.81667 17.7615 6.1C17.9212 6.38333 18.0007 6.68333 18 7V16C18 16.55 17.7795 17.021 17.3385 17.413C16.8975 17.805 16.368 18.0007 15.75 18H10.125V12H7.875V18H2.25Z" fill="black"/>
</svg>
