<svg width="20" height="20" viewBox="0 0 20 20" fill="none"
    xmlns="http://www.w3.org/2000/svg">
    <path d="M6.74711 0.755366C8.77921 2.68111 10.1177 4.87106 10.8593 7.04452C7.8589 5.8304 4.33896 5.2783 0.584184 5.96114C4.7308 5.57681 8.37279 6.55333 11.1815 8.13492C13.0383 15.5045 8.14158 22.1357 0.353577 16.8881C5.21466 21.2556 9.0461 21.5262 11.3528 19.6626C24.6187 23.1948 21.6602 12.5519 12.5339 7.81464C11.417 5.27256 9.52497 2.77222 6.74707 0.755321L6.74711 0.755366ZM13.1392 9.43181C18.4626 13.5657 19.1545 19.8007 11.4714 19.5644C13.7221 17.63 14.442 13.6009 13.1392 9.43181Z" fill="black"/>
</svg>
