<svg width="18" height="18" viewBox="0 0 18 18" fill="none"
    xmlns="http://www.w3.org/2000/svg">
    <path d="M9 9C7.7625 9 6.70313 8.55937 5.82188 7.67812C4.94063 6.79687 4.5 5.7375 4.5 4.5C4.5 3.2625 4.94063 2.20313 5.82188 1.32188C6.70313 0.440625 7.7625 0 9 0C10.2375 0 11.2969 0.440625 12.1781 1.32188C13.0594 2.20313 13.5 3.2625 13.5 4.5C13.5 5.7375 13.0594 6.79687 12.1781 7.67812C11.2969 8.55937 10.2375 9 9 9ZM15.75 18H2.25C1.63125 18 1.10138 17.7795 0.660377 17.3385C0.219377 16.8975 -0.00074809 16.368 1.91002e-06 15.75V14.85C1.91002e-06 14.2125 0.164252 13.6264 0.492752 13.0916C0.821252 12.5569 1.257 12.1492 1.8 11.8687C2.9625 11.2875 4.14375 10.8514 5.34375 10.5604C6.54375 10.2694 7.7625 10.1242 9 10.125C10.2375 10.125 11.4562 10.2705 12.6562 10.5615C13.8562 10.8525 15.0375 11.2882 16.2 11.8687C16.7437 12.15 17.1799 12.558 17.5084 13.0927C17.8369 13.6275 18.0007 14.2132 18 14.85V15.75C18 16.3687 17.7795 16.8986 17.3385 17.3396C16.8975 17.7806 16.368 18.0007 15.75 18ZM2.25 15.75H15.75V14.85C15.75 14.6437 15.6982 14.4562 15.5947 14.2875C15.4912 14.1187 15.3555 13.9875 15.1875 13.8937C14.175 13.3875 13.1531 13.008 12.1219 12.7552C11.0906 12.5025 10.05 12.3757 9 12.375C7.95 12.375 6.90938 12.5017 5.87813 12.7552C4.84688 13.0087 3.825 13.3882 2.8125 13.8937C2.64375 13.9875 2.50763 14.1187 2.40413 14.2875C2.30063 14.4562 2.24925 14.6437 2.25 14.85V15.75ZM9 6.75C9.61875 6.75 10.1486 6.5295 10.5896 6.0885C11.0306 5.6475 11.2507 5.118 11.25 4.5C11.25 3.88125 11.0295 3.35137 10.5885 2.91037C10.1475 2.46937 9.618 2.24925 9 2.25C8.38125 2.25 7.85138 2.4705 7.41038 2.9115C6.96938 3.3525 6.74925 3.882 6.75 4.5C6.75 5.11875 6.9705 5.64862 7.4115 6.08962C7.8525 6.53062 8.382 6.75075 9 6.75Z" fill="black"/>
</svg>
