<svg width="18" height="18" viewBox="0 0 18 18" fill="none"
    xmlns="http://www.w3.org/2000/svg">
    <path fill-rule="evenodd" clip-rule="evenodd" d="M3.35977 15.5863C1.94795 14.0371 1.08944 11.9921 1.08944 9.74968C1.08944 4.91454 5.08023 0.995003 10.0029 0.995003C14.9252 0.995003 18.916 4.91454 18.916 9.74968C18.916 13.1687 16.92 16.1284 14.0109 17.5699C12.1687 18.5287 10.1219 19.0275 8.0451 19.0238C5.40432 19.0238 2.95069 18.2344 0.916016 16.8831C0.916016 16.8831 2.28062 16.7341 3.35848 15.5859H3.35934L3.35977 15.5863ZM14.1899 14.083C16.4963 11.7775 16.4963 8.0391 14.1899 5.7327C13.1642 4.70413 11.7942 4.09145 10.3438 4.01267C10.3017 2.96228 10.867 2.25315 10.8696 2.24972V2.24929C9.20531 2.57018 7.67575 3.38356 6.47918 4.58401C5.5551 5.5054 4.85654 6.62794 4.43806 7.86396C4.4973 7.70685 4.56383 7.55146 4.63681 7.39865C4.55267 7.61327 4.4767 7.8322 4.40801 8.05627C3.73279 10.1064 4.20927 12.4527 5.83958 14.083C8.14555 16.389 11.8839 16.389 14.1899 14.083Z" fill="black"/>
    <path fill-rule="evenodd" clip-rule="evenodd" d="M7.01746 9.30111V10.5232C7.01746 10.7574 7.11048 10.982 7.27608 11.1476C7.44167 11.3132 7.66626 11.4062 7.90044 11.4062C8.13462 11.4062 8.35921 11.3132 8.5248 11.1476C8.69039 10.982 8.78342 10.7574 8.78342 10.5232V9.30111C8.78342 9.06693 8.69039 8.84234 8.5248 8.67675C8.35921 8.51116 8.13462 8.41813 7.90044 8.41813C7.66626 8.41813 7.44167 8.51116 7.27608 8.67675C7.11048 8.84234 7.01746 9.06693 7.01746 9.30111ZM11.3886 9.30111V10.5232C11.3886 10.7574 11.4816 10.982 11.6472 11.1476C11.8128 11.3132 12.0374 11.4062 12.2716 11.4062C12.5057 11.4062 12.7303 11.3132 12.8959 11.1476C13.0615 10.982 13.1545 10.7574 13.1545 10.5232V9.30111C13.1545 9.06693 13.0615 8.84234 12.8959 8.67675C12.7303 8.51116 12.5057 8.41813 12.2716 8.41813C12.0374 8.41813 11.8128 8.51116 11.6472 8.67675C11.4816 8.84234 11.3886 9.06693 11.3886 9.30111Z" fill="black"/>
</svg>
